# xmcd
#
# Track frame offsets:
#        150
#        14730
#        28672
#        41822
#        53305
#        67687
#        81472
#        94635
#        107477
#        121795
#        135777
#        148027
#        161662
#        173270
#        187282
#        198737
#        211110
#        228360
#        240652
#        254597
#        267227
#        278515
#        292030
#        303855
#
# Disc length: 4233 seconds
#
# Revision: 0
# Processed by: cddbd v1.5.1PL0 Copyright (c) Steve Scherf et al.
# Submitted via: ExactAudioCopy v0.95a5
#
DISCID=4a108718
DTITLE=Jimmy Witherspoon and Jay McShann - Midnight City Blues
DYEAR=1900
DGENRE=Blues
TTITLE0=Ain't Nobody's Business (110-B2)
TTITLE1=In The Evening
TTITLE2=Frog-I-More
TTITLE3=McShann's Bounce
TTITLE4=How Long Blues
TTITLE5=Money's Getting Cheaper
TTITLE6=Skidrow Blues (109-A2)
TTITLE7=Spoon Calls Hootie
TTITLE8=Backwater Blues
TTITLE9=Jumpin', With Louis
TTITLE10=Destruction Blues
TTITLE11=Ain't Nobody's Business (110-A4)
TTITLE12=Hot Biscuits
TTITLE13=Slow Drag Blues
TTITLE14=M. R. Boogie
TTITLE15=Buttermilk
TTITLE16=Skidrow Blues (109-A1)
TTITLE17=Soft Winds
TTITLE18=No Name Boogie
TTITLE19=Thinking About My Baby
TTITLE20=Geronimo
TTITLE21=Twelve O'Clock Whistle
TTITLE22=Mellodrag
TTITLE23=Eatin' Watermelon
EXTD=
EXTT0=
EXTT1=
EXTT2=
EXTT3=
EXTT4=
EXTT5=
EXTT6=
EXTT7=
EXTT8=
EXTT9=
EXTT10=
EXTT11=
EXTT12=
EXTT13=
EXTT14=
EXTT15=
EXTT16=
EXTT17=
EXTT18=
EXTT19=
EXTT20=
EXTT21=
EXTT22=
EXTT23=
PLAYORDER=
